<?xml version="1.0" standalone="no"?>
<!DOCTYPE svg PUBLIC "-//W3C//DTD SVG 20010904//EN"
 "http://www.w3.org/TR/2001/REC-SVG-20010904/DTD/svg10.dtd">
<svg version="1.0" xmlns="http://www.w3.org/2000/svg"
 width="400.000000pt" height="400.000000pt" viewBox="0 0 400.000000 400.000000"
 preserveAspectRatio="xMidYMid meet">
<metadata>
Created by potrace 1.11, written by Peter Selinger 2001-2013
</metadata>
<g transform="translate(0.000000,400.000000) scale(0.100000,-0.100000)"
fill="#000000" stroke="none">
<path d="M0 2000 l0 -2000 2000 0 2000 0 0 2000 0 2000 -2000 0 -2000 0 0
-2000z m2975 886 c103 -28 184 -75 260 -151 101 -100 159 -221 180 -373 l7
-52 -116 0 -116 0 -6 28 c-54 253 -158 359 -371 378 -244 22 -437 -133 -499
-401 -26 -112 -27 -522 -1 -635 47 -208 171 -352 336 -390 75 -18 221 -8 292
19 134 51 191 129 239 329 l11 42 116 0 115 0 -7 -48 c-37 -258 -203 -453
-440 -518 -91 -25 -297 -30 -387 -10 -231 51 -414 233 -486 481 -38 133 -46
204 -45 420 0 174 4 227 22 311 37 179 95 291 211 406 89 88 201 149 317 173
87 18 286 13 368 -9z m-1700 -6 c161 -19 272 -63 360 -143 101 -91 147 -209
148 -377 1 -131 -29 -225 -100 -316 -36 -45 -135 -121 -191 -145 l-43 -19 16
-30 c9 -17 103 -189 210 -382 107 -193 195 -353 195 -355 0 -2 -57 -3 -128 -3
l-127 0 -194 360 -193 360 -209 0 -209 0 0 -360 0 -360 -120 0 -120 0 0 890 0
890 308 0 c169 0 347 -5 397 -10z"/>
<path d="M810 2356 l0 -336 193 0 c105 0 221 5 256 11 134 21 228 93 271 205
18 48 21 74 18 139 -5 104 -38 177 -102 231 -88 73 -110 78 -388 82 l-248 4 0
-336z"/>
</g>
</svg>
